<svg xmlns="http://www.w3.org/2000/svg" viewBox="0 0 128 128" width="128" height="128">
  <defs>
    <linearGradient id="greyGradient" x1="0%" y1="0%" x2="100%" y2="100%">
      <stop offset="0%" style="stop-color:#95a5a6;stop-opacity:1" />
      <stop offset="100%" style="stop-color:#7f8c8d;stop-opacity:1" />
    </linearGradient>
  </defs>
  
  <!-- Shield shape -->
  <path d="M64,5 C95,5 123,33 123,64 C123,95 95,123 64,123 C33,123 5,95 5,64 C5,33 33,5 64,5 Z" 
        fill="url(#greyGradient)" stroke="#7f8c8d" stroke-width="2"/>
  
  <!-- Question mark -->
  <path d="M55,45 C55,40 58,38 62,38 C66,38 69,40 69,43 C69,46 67,48 65,49 C64,50 63,50 62,50" 
        stroke="white" stroke-width="3" fill="none" stroke-linecap="round"/>
  <circle cx="64" cy="55" r="1" fill="white"/>
  
  <!-- Text label -->
  <text x="64" y="115" font-family="Arial, sans-serif" font-size="12" fill="white" text-anchor="middle" font-weight="bold">GDPR</text>
</svg>